<svg width="192" height="206" viewBox="0 0 192 206" fill="none" xmlns="http://www.w3.org/2000/svg">
<path d="M144.538 154.791C144.188 154.891 143.82 154.891 143.469 154.791L76.9661 136.061C76.4253 135.908 75.9617 135.53 75.677 135.009C75.3922 134.489 75.3096 133.868 75.4472 133.285L99.1238 33.3074C99.1922 33.0183 99.3127 32.7468 99.4785 32.5085C99.6443 32.2702 99.8521 32.0698 100.09 31.9187C100.328 31.7676 100.591 31.6688 100.865 31.6279C101.139 31.587 101.418 31.6049 101.685 31.6804L168.188 50.4107C168.729 50.5637 169.193 50.9419 169.477 51.4624C169.762 51.9828 169.845 52.603 169.707 53.1869L146.031 153.164C145.963 153.453 145.843 153.725 145.677 153.964C145.511 154.202 145.303 154.402 145.065 154.553C144.9 154.657 144.723 154.737 144.538 154.791Z" fill="#E6E6E6"/>
<path d="M98.3673 37.1752L98.2465 37.6853L168.531 57.4806L168.652 56.9705L98.3673 37.1752Z" fill="white"/>
<path d="M96.1929 46.3568L96.0721 46.8668L166.356 66.6621L166.477 66.1521L96.1929 46.3568Z" fill="white"/>
<path d="M94.0185 55.5383L93.8977 56.0484L164.182 75.8437L164.303 75.3336L94.0185 55.5383Z" fill="white"/>
<path d="M91.8441 64.7199L91.7233 65.23L162.008 85.0253L162.129 84.5152L91.8441 64.7199Z" fill="white"/>
<path d="M89.6697 73.9014L89.549 74.4115L159.833 94.2068L159.954 93.6967L89.6697 73.9014Z" fill="white"/>
<path d="M87.4954 83.083L87.3746 83.593L157.659 103.388L157.78 102.878L87.4954 83.083Z" fill="white"/>
<path d="M85.321 92.2645L85.2002 92.7746L155.485 112.57L155.605 112.06L85.321 92.2645Z" fill="white"/>
<path d="M83.1467 101.446L83.0259 101.956L153.31 121.751L153.431 121.241L83.1467 101.446Z" fill="white"/>
<path d="M80.9723 110.628L80.8515 111.138L151.136 130.933L151.257 130.423L80.9723 110.628Z" fill="white"/>
<path d="M78.7979 119.809L78.6771 120.319L148.962 140.115L149.082 139.605L78.7979 119.809Z" fill="white"/>
<path d="M76.6235 128.991L76.5027 129.501L146.787 149.296L146.908 148.786L76.6235 128.991Z" fill="white"/>
<path d="M135.865 143.107C135.515 143.207 135.146 143.207 134.796 143.108L68.2925 124.377C67.7518 124.224 67.2882 123.846 67.0034 123.326C66.7187 122.805 66.6361 122.185 66.7737 121.601L90.4503 21.6238C90.5187 21.3347 90.6392 21.0632 90.805 20.8249C90.9708 20.5866 91.1785 20.3862 91.4164 20.2351C91.6543 20.084 91.9177 19.9852 92.1914 19.9443C92.4652 19.9034 92.744 19.9213 93.0119 19.9968L159.515 38.7271C160.056 38.8801 160.519 39.2583 160.804 39.7788C161.089 40.2992 161.171 40.9194 161.034 41.5033L137.357 141.48C137.289 141.77 137.169 142.042 137.003 142.28C136.837 142.518 136.629 142.719 136.391 142.869C136.226 142.974 136.049 143.054 135.865 143.107Z" fill="#F2F2F2"/>
<path d="M89.6937 25.4916L89.5729 26.0017L159.857 45.797L159.978 45.2869L89.6937 25.4916Z" fill="white"/>
<path d="M87.5194 34.6732L87.3986 35.1832L157.683 54.9786L157.804 54.4685L87.5194 34.6732Z" fill="white"/>
<path d="M85.345 43.8548L85.2242 44.3648L155.509 64.1601L155.629 63.6501L85.345 43.8548Z" fill="white"/>
<path d="M83.1707 53.0363L83.0499 53.5464L153.334 73.3417L153.455 72.8316L83.1707 53.0363Z" fill="white"/>
<path d="M80.9962 62.2178L80.8754 62.7279L151.16 82.5232L151.281 82.0132L80.9962 62.2178Z" fill="white"/>
<path d="M78.8218 71.3994L78.701 71.9095L148.985 91.7048L149.106 91.1947L78.8218 71.3994Z" fill="white"/>
<path d="M76.6475 80.581L76.5267 81.091L146.811 100.886L146.932 100.376L76.6475 80.581Z" fill="white"/>
<path d="M74.4731 89.7625L74.3523 90.2726L144.637 110.068L144.757 109.558L74.4731 89.7625Z" fill="white"/>
<path d="M72.2987 98.9441L72.1779 99.4542L142.462 119.249L142.583 118.739L72.2987 98.9441Z" fill="white"/>
<path d="M70.1244 108.126L70.0036 108.636L140.288 128.431L140.409 127.921L70.1244 108.126Z" fill="white"/>
<path d="M67.95 117.307L67.8292 117.817L138.114 137.613L138.234 137.102L67.95 117.307Z" fill="white"/>
<path d="M98.3073 17.6087L6.13184 44.0613L40.8276 182.745L133.003 156.292C133.334 156.197 133.616 155.964 133.787 155.643C133.958 155.323 134.003 154.941 133.914 154.583L99.8936 18.6012C99.804 18.243 99.5865 17.9372 99.289 17.751C98.9915 17.5649 98.6384 17.5137 98.3073 17.6087ZM45.0719 177.425C44.6192 177.555 44.1403 177.536 43.6959 177.372C43.2514 177.208 42.8613 176.906 42.5748 176.503C42.2884 176.1 42.1185 175.615 42.0866 175.109C42.0547 174.603 42.1623 174.1 42.3958 173.661C42.6292 173.223 42.978 172.87 43.3981 172.647C43.8182 172.424 44.2906 172.341 44.7558 172.409C45.2209 172.476 45.6577 172.691 46.0111 173.026C46.3645 173.361 46.6185 173.802 46.7411 174.291C46.8224 174.617 46.8438 174.956 46.8039 175.289C46.7641 175.623 46.6638 175.944 46.5088 176.235C46.3538 176.526 46.1471 176.781 45.9006 176.985C45.654 177.189 45.3724 177.338 45.0719 177.425ZM41.9177 164.817C41.465 164.947 40.9862 164.929 40.5417 164.765C40.0972 164.601 39.7071 164.298 39.4207 163.895C39.1342 163.492 38.9643 163.007 38.9325 162.502C38.9006 161.996 39.0082 161.492 39.2416 161.054C39.4751 160.616 39.8239 160.263 40.244 160.04C40.664 159.817 41.1365 159.734 41.6016 159.801C42.0667 159.869 42.5036 160.083 42.857 160.419C43.2104 160.754 43.4644 161.194 43.5869 161.684C43.6683 162.009 43.6896 162.348 43.6498 162.681C43.6099 163.015 43.5096 163.336 43.3546 163.627C43.1996 163.918 42.993 164.173 42.7464 164.377C42.4999 164.581 42.2183 164.731 41.9177 164.817ZM38.7635 152.209C38.3109 152.339 37.832 152.321 37.3875 152.157C36.9431 151.993 36.553 151.69 36.2665 151.288C35.9801 150.885 35.8102 150.4 35.7783 149.894C35.7464 149.388 35.854 148.884 36.0875 148.446C36.3209 148.008 36.6697 147.655 37.0898 147.432C37.5099 147.209 37.9823 147.126 38.4474 147.194C38.9126 147.261 39.3494 147.476 39.7028 147.811C40.0562 148.146 40.3102 148.586 40.4327 149.076C40.5141 149.401 40.5355 149.74 40.4956 150.074C40.4558 150.407 40.3555 150.729 40.2005 151.02C40.0455 151.311 39.8388 151.565 39.5923 151.77C39.3457 151.974 39.0641 152.123 38.7635 152.209ZM35.6094 139.602C35.1567 139.732 34.6779 139.714 34.2334 139.549C33.7889 139.385 33.3988 139.083 33.1123 138.68C32.8259 138.277 32.656 137.792 32.6241 137.286C32.5923 136.781 32.6999 136.277 32.9333 135.839C33.1667 135.4 33.5156 135.048 33.9356 134.825C34.3557 134.602 34.8282 134.519 35.2933 134.586C35.7584 134.653 36.1953 134.868 36.5486 135.203C36.902 135.538 37.156 135.979 37.2786 136.469C37.36 136.794 37.3813 137.133 37.3415 137.466C37.3016 137.8 37.2013 138.121 37.0463 138.412C36.8913 138.703 36.6846 138.958 36.4381 139.162C36.1915 139.366 35.9099 139.516 35.6094 139.602ZM32.4552 126.994C32.0025 127.124 31.5237 127.106 31.0792 126.942C30.6348 126.778 30.2446 126.475 29.9582 126.072C29.6717 125.67 29.5018 125.185 29.47 124.679C29.4381 124.173 29.5457 123.669 29.7791 123.231C30.0126 122.793 30.3614 122.44 30.7815 122.217C31.2015 121.994 31.674 121.911 32.1391 121.978C32.6042 122.046 33.0411 122.261 33.3945 122.596C33.7479 122.931 34.0019 123.371 34.1244 123.861C34.2058 124.186 34.2272 124.525 34.1873 124.859C34.1475 125.192 34.0472 125.514 33.8922 125.804C33.7372 126.095 33.5305 126.35 33.2839 126.554C33.0374 126.759 32.7558 126.908 32.4552 126.994ZM29.3011 114.387C28.8484 114.517 28.3695 114.498 27.9251 114.334C27.4806 114.17 27.0905 113.868 26.804 113.465C26.5176 113.062 26.3477 112.577 26.3158 112.071C26.2839 111.566 26.3915 111.062 26.625 110.624C26.8584 110.185 27.2072 109.832 27.6273 109.609C28.0474 109.386 28.5198 109.303 28.985 109.371C29.4501 109.438 29.8869 109.653 30.2403 109.988C30.5937 110.323 30.8477 110.764 30.9703 111.253C31.0516 111.579 31.073 111.918 31.0331 112.251C30.9933 112.585 30.893 112.906 30.738 113.197C30.583 113.488 30.3763 113.743 30.1298 113.947C29.8832 114.151 29.6016 114.3 29.3011 114.387ZM26.1469 101.779C25.6942 101.909 25.2154 101.891 24.7709 101.727C24.3264 101.563 23.9363 101.26 23.6499 100.857C23.3634 100.454 23.1935 99.9694 23.1617 99.4637C23.1298 98.958 23.2374 98.4541 23.4708 98.0159C23.7043 97.5777 24.0531 97.2248 24.4731 97.0019C24.8932 96.7789 25.3657 96.6959 25.8308 96.7633C26.2959 96.8307 26.7328 97.0455 27.0862 97.3806C27.4395 97.7157 27.6936 98.156 27.8161 98.6458C27.8975 98.971 27.9188 99.31 27.879 99.6435C27.8391 99.977 27.7388 100.298 27.5838 100.589C27.4288 100.88 27.2222 101.135 26.9756 101.339C26.7291 101.543 26.4475 101.693 26.1469 101.779ZM22.9927 89.1715C22.5401 89.3014 22.0612 89.2832 21.6167 89.1191C21.1723 88.955 20.7822 88.6524 20.4957 88.2496C20.2093 87.8468 20.0394 87.3618 20.0075 86.8561C19.9756 86.3504 20.0832 85.8466 20.3167 85.4083C20.5501 84.9701 20.8989 84.6173 21.319 84.3943C21.7391 84.1713 22.2115 84.0883 22.6766 84.1557C23.1418 84.2231 23.5786 84.438 23.932 84.773C24.2854 85.1081 24.5394 85.5484 24.6619 86.0382C24.7433 86.3634 24.7647 86.7024 24.7248 87.0359C24.685 87.3694 24.5847 87.6908 24.4297 87.9817C24.2747 88.2727 24.068 88.5275 23.8215 88.7317C23.5749 88.9358 23.2933 89.0853 22.9927 89.1715ZM19.8386 76.5639C19.3859 76.6939 18.907 76.6756 18.4626 76.5115C18.0181 76.3474 17.628 76.0448 17.3415 75.642C17.0551 75.2392 16.8852 74.7543 16.8533 74.2485C16.8215 73.7428 16.929 73.239 17.1625 72.8008C17.3959 72.3626 17.7448 72.0097 18.1648 71.7867C18.5849 71.5637 19.0574 71.4807 19.5225 71.5481C19.9876 71.6155 20.4245 71.8304 20.7778 72.1655C21.1312 72.5005 21.3852 72.9408 21.5078 73.4306C21.5891 73.7558 21.6105 74.0949 21.5707 74.4283C21.5308 74.7618 21.4305 75.0832 21.2755 75.3742C21.1205 75.6651 20.9138 75.9199 20.6673 76.1241C20.4207 76.3282 20.1391 76.4777 19.8386 76.5639ZM16.6844 63.9564C16.2317 64.0863 15.7529 64.068 15.3084 63.9039C14.8639 63.7398 14.4738 63.4372 14.1874 63.0344C13.9009 62.6316 13.731 62.1467 13.6992 61.6409C13.6673 61.1352 13.7749 60.6314 14.0083 60.1932C14.2418 59.755 14.5906 59.4021 15.0107 59.1791C15.4307 58.9561 15.9032 58.8731 16.3683 58.9405C16.8334 59.0079 17.2703 59.2228 17.6237 59.5579C17.9771 59.8929 18.2311 60.3332 18.3536 60.823C18.435 61.1482 18.4564 61.4873 18.4165 61.8207C18.3767 62.1542 18.2764 62.4756 18.1214 62.7666C17.9664 63.0575 17.7597 63.3123 17.5131 63.5165C17.2666 63.7206 16.985 63.8701 16.6844 63.9564ZM13.5303 51.3488C13.0776 51.4787 12.5987 51.4604 12.1543 51.2963C11.7098 51.1322 11.3197 50.8296 11.0332 50.4268C10.7468 50.024 10.5769 49.5391 10.545 49.0334C10.5131 48.5276 10.6207 48.0238 10.8542 47.5856C11.0876 47.1474 11.4364 46.7945 11.8565 46.5715C12.2766 46.3485 12.749 46.2655 13.2142 46.3329C13.6793 46.4004 14.1161 46.6152 14.4695 46.9503C14.8229 47.2854 15.0769 47.7256 15.1995 48.2154C15.2808 48.5407 15.3022 48.8797 15.2623 49.2132C15.2225 49.5466 15.1222 49.868 14.9672 50.159C14.8122 50.4499 14.6055 50.7048 14.359 50.9089C14.1124 51.113 13.8308 51.2625 13.5303 51.3488Z" fill="#1C2D40" style="mix-blend-mode:darken"/>
<path d="M8.04689 51.7159C7.42928 51.8931 2.00493 53.416 1.73121 52.3219C1.45748 51.2277 6.86603 49.6418 7.48364 49.4645L7.59629 49.9148C4.40606 50.8303 2.43414 51.8104 2.17331 52.195C2.57874 52.3884 4.74401 52.1811 7.93424 51.2656C11.1174 50.3521 13.0876 49.3743 13.3554 48.9881C13.1626 48.9108 12.4366 48.8414 10.6217 49.1844L10.5453 48.7256C13.6206 48.1442 13.7505 48.6632 13.7993 48.8585C14.0731 49.9527 8.66449 51.5386 8.04689 51.7159Z" fill="#2F2E41"/>
<path d="M11.1447 64.0983C10.5271 64.2756 5.10277 65.7984 4.82904 64.7043C4.55532 63.6102 9.96387 62.0242 10.5815 61.847L10.6941 62.2972C7.5039 63.2128 5.53198 64.1928 5.27114 64.5774C5.67658 64.7708 7.84185 64.5636 11.0321 63.6481C14.2152 62.7346 16.1854 61.7568 16.4533 61.3705C16.2605 61.2933 15.5345 61.2238 13.7196 61.5669L13.6432 61.1081C16.7185 60.5267 16.8483 61.0457 16.8972 61.241C17.1709 62.3351 11.7623 63.9211 11.1447 64.0983Z" fill="#2F2E41"/>
<path d="M14.2988 76.7059C13.6812 76.8831 8.25689 78.406 7.98316 77.3119C7.70943 76.2178 13.118 74.6318 13.7356 74.4546L13.8482 74.9048C10.658 75.8204 8.68609 76.8004 8.42526 77.185C8.8307 77.3784 10.996 77.1712 14.1862 76.2556C17.3693 75.3421 19.3395 74.3643 19.6074 73.9781C19.4146 73.9009 18.6886 73.8314 16.8737 74.1744L16.7973 73.7157C19.8726 73.1343 20.0024 73.6532 20.0513 73.8486C20.325 74.9427 14.9164 76.5287 14.2988 76.7059Z" fill="#2F2E41"/>
<path d="M17.453 89.3135C16.8354 89.4907 11.4111 91.0136 11.1373 89.9195C10.8636 88.8254 16.2722 87.2394 16.8898 87.0621L17.0024 87.5124C13.8122 88.428 11.8403 89.408 11.5794 89.7926C11.9849 89.986 14.1501 89.7788 17.3404 88.8632C20.5235 87.9497 22.4937 86.9719 22.7616 86.5857C22.5688 86.5085 21.8428 86.439 20.0279 86.782L19.9515 86.3233C23.0267 85.7419 23.1566 86.2608 23.2055 86.4562C23.4792 87.5503 18.0706 89.1363 17.453 89.3135Z" fill="#2F2E41"/>
<path d="M20.6072 101.921C19.9896 102.098 14.5652 103.621 14.2915 102.527C14.0178 101.433 19.4263 99.847 20.0439 99.6697L20.1566 100.12C16.9664 101.036 14.9944 102.016 14.7336 102.4C15.139 102.594 17.3043 102.386 20.4945 101.471C23.6777 100.557 25.6479 99.5795 25.9157 99.1933C25.7229 99.1161 24.9969 99.0466 23.182 99.3896L23.1056 98.9308C26.1809 98.3494 26.3108 98.8684 26.3596 99.0638C26.6334 100.158 21.2248 101.744 20.6072 101.921Z" fill="#2F2E41"/>
<path d="M23.7614 114.529C23.1438 114.706 17.7194 116.229 17.4457 115.135C17.172 114.041 22.5805 112.455 23.1981 112.277L23.3108 112.728C20.1205 113.643 18.1486 114.623 17.8878 115.008C18.2932 115.201 20.4585 114.994 23.6487 114.078C26.8318 113.165 28.802 112.187 29.0699 111.801C28.8771 111.724 28.1511 111.654 26.3362 111.997L26.2598 111.538C29.3351 110.957 29.4649 111.476 29.5138 111.671C29.7875 112.765 24.379 114.351 23.7614 114.529Z" fill="#2F2E41"/>
<path d="M26.9155 127.136C26.2979 127.314 20.8735 128.836 20.5998 127.742C20.3261 126.648 25.7346 125.062 26.3522 124.885L26.4649 125.335C23.2747 126.251 21.3027 127.231 21.0419 127.615C21.4473 127.809 23.6126 127.602 26.8028 126.686C29.9859 125.773 31.9561 124.795 32.224 124.408C32.0312 124.331 31.3052 124.262 29.4903 124.605L29.4139 124.146C32.4892 123.565 32.619 124.084 32.6679 124.279C32.9416 125.373 27.5331 126.959 26.9155 127.136Z" fill="#2F2E41"/>
<path d="M30.0696 139.744C29.452 139.921 24.0277 141.444 23.754 140.35C23.4802 139.256 28.8888 137.67 29.5064 137.493L29.6191 137.943C26.4288 138.858 24.4569 139.838 24.1961 140.223C24.6015 140.416 26.7668 140.209 29.957 139.294C33.1401 138.38 35.1103 137.402 35.3782 137.016C35.1854 136.939 34.4594 136.869 32.6445 137.212L32.5681 136.754C35.6434 136.172 35.7732 136.691 35.8221 136.887C36.0958 137.981 30.6873 139.567 30.0696 139.744Z" fill="#2F2E41"/>
<path d="M33.2238 152.351C32.6062 152.529 27.1819 154.052 26.9082 152.957C26.6344 151.863 32.043 150.277 32.6606 150.1L32.7732 150.55C29.583 151.466 27.6111 152.446 27.3502 152.831C27.7557 153.024 29.921 152.817 33.1112 151.901C36.2943 150.988 38.2645 150.01 38.5324 149.624C38.3396 149.546 37.6136 149.477 35.7987 149.82L35.7223 149.361C38.7976 148.78 38.9274 149.299 38.9763 149.494C39.25 150.588 33.8414 152.174 33.2238 152.351Z" fill="#2F2E41"/>
<path d="M36.378 164.959C35.7604 165.136 30.3361 166.659 30.0623 165.565C29.7886 164.471 35.1971 162.885 35.8148 162.708L35.9274 163.158C32.7372 164.073 30.7653 165.054 30.5044 165.438C30.9099 165.632 33.0751 165.424 36.2654 164.509C39.4485 163.595 41.4187 162.617 41.6866 162.231C41.4938 162.154 40.7677 162.084 38.9528 162.428L38.8764 161.969C41.9517 161.387 42.0816 161.906 42.1304 162.102C42.4042 163.196 36.9956 164.782 36.378 164.959Z" fill="#2F2E41"/>
<path d="M39.5322 177.567C38.9146 177.744 33.4902 179.267 33.2165 178.173C32.9428 177.078 38.3513 175.493 38.9689 175.315L39.0816 175.766C35.8914 176.681 33.9194 177.661 33.6586 178.046C34.064 178.239 36.2293 178.032 39.4195 177.116C42.6026 176.203 44.5728 175.225 44.8407 174.839C44.6479 174.762 43.9219 174.692 42.107 175.035L42.0306 174.576C45.1059 173.995 45.2357 174.514 45.2846 174.709C45.5583 175.803 40.1498 177.389 39.5322 177.567Z" fill="#2F2E41"/>
<path d="M92.7412 76.0321L46.9656 89.1688C46.6069 89.2713 46.2246 89.2156 45.9024 89.014C45.5802 88.8124 45.3445 88.4814 45.247 88.0936L40.4032 68.7319C40.3065 68.3438 40.3561 67.9309 40.541 67.5838C40.7259 67.2367 41.031 66.9837 41.3895 66.8804L87.1651 53.7437C87.5238 53.6412 87.9062 53.6969 88.2284 53.8984C88.5505 54.1 88.7862 54.4311 88.8837 54.8189L93.7276 74.1806C93.8242 74.5687 93.7747 74.9816 93.5898 75.3287C93.4048 75.6758 93.0997 75.9287 92.7412 76.0321Z" fill="white"/>
<path d="M71.7649 65.2816L60.1129 68.6255C59.837 68.7046 59.5427 68.662 59.2948 68.5069C59.0469 68.3518 58.8656 68.0969 58.791 67.7984C58.7163 67.4998 58.7542 67.182 58.8965 66.9149C59.0388 66.6478 59.2738 66.4533 59.5497 66.3741L71.2017 63.0302C71.4776 62.951 71.7719 62.9937 72.0198 63.1488C72.2677 63.3039 72.4489 63.5588 72.5236 63.8573C72.5983 64.1559 72.5604 64.4737 72.4181 64.7408C72.2758 65.0078 72.0408 65.2024 71.7649 65.2816L71.7649 65.2816Z" fill="#413F79"/>
<path d="M79.6232 69.0589L55.0708 76.1049C54.7949 76.1841 54.5006 76.1415 54.2527 75.9863C54.0048 75.8312 53.8235 75.5764 53.7488 75.2778C53.6742 74.9793 53.7121 74.6615 53.8544 74.3944C53.9967 74.1273 54.2317 73.9328 54.5076 73.8536L79.06 66.8075C79.3359 66.7283 79.6302 66.771 79.8781 66.9261C80.126 67.0812 80.3072 67.3361 80.3819 67.6346C80.4566 67.9332 80.4186 68.2509 80.2764 68.518C80.1341 68.7851 79.8991 68.9797 79.6232 69.0589Z" fill="#413F79"/>
<path d="M81.0313 74.6873L56.4789 81.7333C56.203 81.8125 55.9087 81.7699 55.6608 81.6147C55.4129 81.4596 55.2316 81.2048 55.1569 80.9062C55.0822 80.6077 55.1202 80.2899 55.2625 80.0228C55.4048 79.7557 55.6397 79.5612 55.9157 79.482L80.468 72.4359C80.744 72.3567 81.0382 72.3994 81.2862 72.5545C81.5341 72.7096 81.7153 72.9645 81.79 73.263C81.8647 73.5616 81.8267 73.8794 81.6844 74.1465C81.5421 74.4135 81.3072 74.6081 81.0313 74.6873Z" fill="#413F79"/>
<path d="M140.232 205.156C166.989 205.156 188.68 200.877 188.68 195.598C188.68 190.318 166.989 186.039 140.232 186.039C113.474 186.039 91.7832 190.318 91.7832 195.598C91.7832 200.877 113.474 205.156 140.232 205.156Z" fill="#F2F2F2"/>
<path d="M173.505 110.758L164.861 115.428L165.421 116.622L174.064 111.951L173.505 110.758Z" fill="#413F79"/>
<path d="M172.099 102.071L171.711 104.566C171.711 104.566 172.294 121.825 168.022 116.419C163.751 111.013 166.663 103.735 166.663 103.735L167.828 101.655L172.099 102.071Z" fill="#FBBEBE"/>
<path d="M147.248 22.2222C147.248 22.2222 146.472 30.9556 146.083 31.3715C145.695 31.7874 151.908 39.6891 151.908 39.6891L157.344 34.2827C157.344 34.2827 156.956 26.381 158.121 24.7174C159.285 23.0539 147.248 22.2222 147.248 22.2222Z" fill="#FBBEBE"/>
<path opacity="0.1" d="M147.248 22.2222C147.248 22.2222 146.472 30.9556 146.083 31.3715C145.695 31.7874 151.908 39.6891 151.908 39.6891L157.344 34.2827C157.344 34.2827 156.956 26.381 158.121 24.7174C159.285 23.0539 147.248 22.2222 147.248 22.2222Z" fill="black"/>
<path d="M132.881 181.504V188.99L130.163 189.406L126.28 188.158L127.445 180.256L132.881 181.504Z" fill="#464646"/>
<path d="M129.386 185.247C129.386 185.247 128.221 181.92 126.28 182.336C124.338 182.752 123.95 185.247 123.95 185.247C123.95 185.247 122.397 191.485 120.067 193.565C117.737 195.644 115.408 201.05 120.067 201.882C124.727 202.714 128.61 200.635 128.61 200.219C128.61 199.803 129.775 197.308 131.716 196.892C133.658 196.476 135.211 196.06 135.211 194.396C135.211 192.733 134.046 191.069 134.046 191.069C134.046 191.069 133.658 183.181 132.881 184.214C132.344 185.03 131.949 185.944 131.716 186.911L129.386 185.247Z" fill="black"/>
<path d="M149.578 177.761L148.025 183.999L151.908 184.831L153.849 182.752L154.237 177.345L149.578 177.761Z" fill="#464646"/>
<path d="M149.19 183.168C149.19 183.168 150.743 181.92 151.519 181.92H152.684C152.684 181.92 152.684 179.009 154.626 179.009C156.567 179.009 156.179 181.088 156.179 181.088C156.179 181.088 160.45 188.158 161.615 189.406C162.78 190.653 168.993 194.396 163.945 196.06C158.897 197.723 155.402 197.723 153.073 194.812C153.073 194.812 150.743 193.565 149.19 193.565C147.636 193.565 145.695 192.733 145.695 191.485C145.695 190.238 146.86 187.742 146.86 187.742C146.86 187.742 147.636 180.256 148.025 181.088C148.413 181.92 149.19 183.168 149.19 183.168Z" fill="black"/>
<path d="M132.493 82.1089V95.8329C132.493 95.8329 128.221 122.449 128.221 131.183C128.221 139.916 121.62 181.504 124.727 182.336C127.833 183.168 135.211 184.415 135.599 183.168C135.987 181.92 138.706 142.411 139.094 141.996C139.482 141.58 147.636 108.725 147.636 108.725L149.19 109.141L149.966 146.57C149.966 146.57 146.083 180.257 148.025 180.257C149.966 180.257 158.121 179.841 158.121 177.345C158.121 174.85 162.392 128.687 162.392 128.687C162.392 128.687 167.44 92.09 165.498 88.3471C163.557 84.6041 163.557 82.5247 163.557 82.5247L132.493 82.1089Z" fill="#576A80"/>
<path d="M153.655 28.6683C157.944 28.6683 161.421 24.9444 161.421 20.3507C161.421 15.7571 157.944 12.0331 153.655 12.0331C149.366 12.0331 145.889 15.7571 145.889 20.3507C145.889 24.9444 149.366 28.6683 153.655 28.6683Z" fill="#FBBEBE"/>
<path d="M151.908 34.6985C151.908 34.6985 147.054 30.3318 146.666 28.6683C146.666 28.6683 144.142 31.3715 144.142 31.7874C144.142 32.2032 133.269 33.4509 130.551 36.7779C127.833 40.105 125.503 47.1749 125.503 47.1749L132.104 60.4831C132.104 60.4831 132.493 67.9689 132.493 68.8007C132.493 69.6324 130.551 82.9406 131.328 83.3565C132.104 83.7723 139.87 87.9311 146.472 87.0994C153.073 86.2676 159.674 85.02 161.615 85.02C163.557 85.02 165.11 85.8517 165.11 85.02C165.11 84.1882 163.945 82.5247 163.945 81.6929C163.945 80.8612 163.557 78.7818 163.557 77.5341C163.557 76.2865 162.78 74.2071 162.78 72.5436C162.78 70.8801 171.323 48.4226 171.323 48.4226C171.323 48.4226 170.934 41.3526 164.722 38.0256C158.509 34.6985 157.732 33.4509 157.732 33.4509C157.732 33.4509 157.611 30.9556 157.283 30.9556C156.956 30.9556 155.791 34.6985 152.684 35.1144L151.908 34.6985Z" fill="black"/>
<path d="M130.939 90.0107L133.658 94.5852L140.647 92.9217L135.599 86.6837L130.939 90.0107Z" fill="#FBBEBE"/>
<path d="M168.993 45.0956L171.323 48.4226C171.323 48.4226 175.982 72.5437 175.206 81.2771C174.429 90.0106 173.653 96.6647 173.653 96.6647C173.653 96.6647 175.206 102.903 174.041 102.903C172.876 102.903 165.887 103.319 165.887 102.071C165.887 100.823 166.663 92.9218 166.663 92.9218L164.722 74.6231L160.45 68.3849L168.993 45.0956Z" fill="black"/>
<path d="M148.33 17.4693C148.806 17.2532 149.356 17.4285 149.866 17.3363C150.465 17.2281 151 16.753 151.605 16.813C151.891 16.8699 152.17 16.9667 152.433 17.1009C152.433 17.1009 152.708 17.2044 152.854 17.21C153 17.2156 152.854 16.6567 153.281 17.1334C153.346 17.1011 153.403 17.0538 153.449 16.9949C153.494 16.9359 153.527 16.8669 153.545 16.7926C153.563 16.7184 153.565 16.6409 153.551 16.5657C153.537 16.4906 153.508 16.4196 153.465 16.3581C153.977 16.3098 154.46 16.0869 154.845 15.7222C154.921 15.637 155.01 15.5656 155.108 15.5107C155.222 15.4788 155.341 15.4724 155.457 15.4918C155.573 15.5112 155.685 15.5561 155.784 15.6235L156.673 16.0622C156.873 16.1379 157.049 16.2728 157.181 16.4512C157.286 16.6277 157.307 16.865 157.457 17.0002C157.648 17.1726 157.933 17.0882 158.183 17.1051C158.409 17.1287 158.619 17.2404 158.774 17.4192C158.928 17.5979 159.016 17.8311 159.021 18.0746C159.017 18.3538 158.922 18.6965 159.129 18.8674C159.248 18.9665 159.418 18.9506 159.558 19.0116C159.921 19.1695 159.923 19.711 159.869 20.1269C159.815 20.5427 159.842 21.0913 160.215 21.2194C160.478 21.3095 160.747 21.1174 161.02 21.0745C161.432 21.0098 161.813 21.2858 162.18 21.497C162.547 21.7081 163.034 21.8506 163.352 21.5625C163.647 21.2945 163.628 20.8042 163.547 20.3984C163.43 19.8167 163.239 19.2552 162.977 18.7301C162.881 18.5756 162.824 18.3965 162.812 18.2109C162.834 18.0803 162.882 17.9562 162.952 17.8467C163.023 17.7373 163.114 17.645 163.22 17.576C163.669 17.1955 164.186 16.8124 164.331 16.219C164.438 15.7835 164.318 15.3242 164.327 14.8741C164.339 14.3263 164.542 13.7809 164.446 13.2426C164.274 12.2669 163.26 11.7974 162.605 11.0938C161.706 10.1271 161.414 8.58092 160.353 7.82587C159.503 7.22183 158.393 7.29394 157.426 6.94834C156.364 6.56868 155.509 5.69646 154.461 5.27332C153.889 5.04744 153.278 4.95988 152.67 5.01693C152.063 5.07397 151.475 5.2742 150.949 5.60326C150.636 5.85153 150.287 6.04246 149.916 6.16829C149.604 6.20706 149.288 6.20314 148.977 6.15661C148.357 6.1224 147.74 6.25877 147.184 6.5527C146.971 6.64381 146.794 6.81028 146.682 7.02437C146.494 7.47059 146.767 8.16815 146.356 8.38151C146.164 8.48098 145.938 8.38569 145.725 8.3907C145.311 8.40044 144.992 8.7864 144.795 9.17666C144.641 9.58922 144.421 9.96943 144.143 10.2997C143.637 10.7746 142.717 10.853 142.585 11.5597C142.583 11.8589 142.599 12.158 142.633 12.4549C142.594 13.0812 141.969 13.5571 142.001 14.1838C142.039 14.9065 142.896 15.2597 143.125 15.9407C143.3 16.4593 143.07 17.0199 142.912 17.5445C142.754 18.0691 142.707 18.7415 143.115 19.0773C143.275 19.2089 143.481 19.2629 143.644 19.39C144.066 19.719 144.061 20.3829 144.014 20.9399C143.987 21.0555 143.987 21.1765 144.013 21.2922C144.04 21.4079 144.093 21.5148 144.167 21.6035C144.237 21.6487 144.315 21.6775 144.396 21.6879C144.477 21.6983 144.559 21.6901 144.637 21.6639C144.89 21.598 145.128 21.4774 145.337 21.3094C145.545 21.1413 145.72 20.9295 145.849 20.6867C145.985 20.4459 146.012 20.2337 146.259 20.1059C146.427 20.0192 146.631 20.0966 146.801 19.984C147.613 19.4488 147.334 17.9216 148.33 17.4693Z" fill="#151414"/>
<path d="M126.668 45.9273L125.503 47.175C125.503 47.175 118.514 69.6325 120.844 74.623C123.174 79.6136 127.833 92.09 129.386 91.6741C130.94 91.2582 136.376 87.5153 136.376 87.0994C136.376 86.6835 129.775 75.0389 129.775 75.0389C129.775 75.0389 128.998 72.5436 129.386 72.1278C129.775 71.7119 129.775 72.1278 129.386 71.296C128.998 70.4642 128.998 71.296 129.775 70.4642C130.551 69.6325 130.551 69.6325 130.551 69.2166C130.551 68.8007 132.881 58.4037 132.881 58.4037L126.668 45.9273Z" fill="black"/>
<path d="M132.687 94.7931L141.23 91.8822L142.394 94.7931L133.075 96.8725L132.687 94.7931Z" fill="#2F2E41"/>
<path opacity="0.1" d="M132.687 94.7931L141.23 91.8822L142.394 94.7931L133.075 96.8725L132.687 94.7931Z" fill="black"/>
<path opacity="0.1" d="M144.336 31.9954L150.937 37.8176L151.714 36.5699L144.336 31.9954Z" fill="black"/>
<path opacity="0.1" d="M157.538 33.6589L152.879 36.5699L153.267 37.8176L157.538 33.6589Z" fill="black"/>
</svg>
